HIERARCHY
ROOT Hips
{
	OFFSET 0.000000 0.000000 0.000000
	CHANNELS 6 Xposition Yposition Zposition Xrotation Yrotation Zrotation
	JOINT LeftUpLeg_virtual
	{
		OFFSET 0.000000 0.000000 0.000000
		CHANNELS 3 Xrotation Yrotation Zrotation
		JOINT LeftUpLeg
		{
			OFFSET 11.394100 -6.187798 -0.413800
			CHANNELS 3 Xrotation Yrotation Zrotation
			JOINT LeftLeg
			{
				OFFSET 0.430247 -32.302673 3.732800
				CHANNELS 3 Xrotation Yrotation Zrotation
				JOINT LeftFoot
				{
					OFFSET -0.430247 -48.264931 -6.423300
					CHANNELS 3 Xrotation Yrotation Zrotation
					JOINT LeftToeBase
					{
						OFFSET 4.230900 -16.068199 23.438400
						CHANNELS 3 Xrotation Yrotation Zrotation
						JOINT LeftToe_End
						{
							OFFSET 4.510700 0.695400 19.974600
							CHANNELS 3 Xrotation Yrotation Zrotation
							End Site
							{
								OFFSET 0 0 0
							}
						}
					}
				}
			}
		}
	}
	JOINT RightUpLeg_virtual
	{
		OFFSET 0.000000 0.000000 0.000000
		CHANNELS 3 Xrotation Yrotation Zrotation
		JOINT RightUpLeg
		{
			OFFSET -11.333700 -6.187798 -0.413800
			CHANNELS 3 Xrotation Yrotation Zrotation
			JOINT RightLeg
			{
				OFFSET -0.430392 -32.302628 3.733000
				CHANNELS 3 Xrotation Yrotation Zrotation
				JOINT RightFoot
				{
					OFFSET 0.430392 -48.264973 -6.423500
					CHANNELS 3 Xrotation Yrotation Zrotation
					JOINT RightToeBase
					{
						OFFSET -4.230900 -16.068199 23.438400
						CHANNELS 3 Xrotation Yrotation Zrotation
						JOINT RightToe_End
						{
							OFFSET -4.510700 0.695400 19.974600
							CHANNELS 3 Xrotation Yrotation Zrotation
							End Site
							{
								OFFSET 0 0 0
							}
						}
					}
				}
			}
		}
	}
	JOINT Spine_virtual
	{
		OFFSET 0.000000 0.000000 0.000000
		CHANNELS 3 Xrotation Yrotation Zrotation
		JOINT Spine
		{
			OFFSET -0.002400 12.777504 0.315300
			CHANNELS 3 Xrotation Yrotation Zrotation
			JOINT Spine1
			{
				OFFSET -0.002067 5.816869 0.032633
				CHANNELS 3 Xrotation Yrotation Zrotation
				JOINT Spine1_split
				{
					OFFSET -0.002067 5.816869 0.032633
					CHANNELS 3 Xrotation Yrotation Zrotation
					JOINT Spine2
					{
						OFFSET -0.002067 5.816869 0.032633
						CHANNELS 3 Xrotation Yrotation Zrotation
						JOINT Neck_virtual
						{
							OFFSET 0.000000 0.000000 0.000000
							CHANNELS 3 Xrotation Yrotation Zrotation
							JOINT Neck
							{
								OFFSET -0.003700 21.199493 -0.826900
								CHANNELS 3 Xrotation Yrotation Zrotation
								JOINT Head
								{
									OFFSET 0.000000 20.442200 4.834800
									CHANNELS 3 Xrotation Yrotation Zrotation
									JOINT HeadTop_End
									{
										OFFSET 0.000000 34.668396 4.968400
										CHANNELS 3 Xrotation Yrotation Zrotation
										End Site
										{
											OFFSET 0 0 0
										}
									}
								}
							}
						}
						JOINT LeftShoulder_virtual
						{
							OFFSET 0.000000 0.000000 0.000000
							CHANNELS 3 Xrotation Yrotation Zrotation
							JOINT LeftShoulder
							{
								OFFSET 3.288150 8.794197 -1.372250
								CHANNELS 3 Xrotation Yrotation Zrotation
								JOINT LeftShoulder_split
								{
									OFFSET 3.288150 8.794197 -1.372250
									CHANNELS 3 Xrotation Yrotation Zrotation
									JOINT LeftArm
									{
										OFFSET 11.953299 -2.279007 -0.146200
										CHANNELS 3 Xrotation Yrotation Zrotation
										JOINT LeftForeArm
										{
											OFFSET 18.448900 0.000000 0.000000
											CHANNELS 3 Xrotation Yrotation Zrotation
											JOINT LeftHand
											{
												OFFSET 29.527798 0.000000 0.000000
												CHANNELS 3 Xrotation Yrotation Zrotation
												End Site
												{
													OFFSET 0 0 0
												}
											}
										}
									}
								}
							}
						}
						JOINT RightShoulder_virtual
						{
							OFFSET 0.000000 0.000000 0.000000
							CHANNELS 3 Xrotation Yrotation Zrotation
							JOINT RightShoulder
							{
								OFFSET -3.249400 8.794197 -1.372250
								CHANNELS 3 Xrotation Yrotation Zrotation
								JOINT RightShoulder_split
								{
									OFFSET -3.249400 8.794197 -1.372250
									CHANNELS 3 Xrotation Yrotation Zrotation
									JOINT RightArm
									{
										OFFSET -11.953299 -2.279007 -0.146200
										CHANNELS 3 Xrotation Yrotation Zrotation
										JOINT RightForeArm
										{
											OFFSET -18.448900 0.000000 0.000000
											CHANNELS 3 Xrotation Yrotation Zrotation
											JOINT RightHand
											{
												OFFSET -29.527802 0.000000 0.000000
												CHANNELS 3 Xrotation Yrotation Zrotation
												End Site
												{
													OFFSET 0 0 0
												}
											}
										}
									}
								}
							}
						}
					}
				}
			}
		}
	}
}
MOTION
Frames: 10
Frame Time: 0.03333333
-0.924558 93.273880 -0.741730 0.000000 0.000000 0.000000 -7.603081 -45.282221 -3.970285 -34.989720 2.720296 11.017518 35.025360 -8.215323 3.265825 -0.477872 -0.854067 -7.641683 -1.962733 -2.134872 2.988220 0.000000 0.000000 0.000000 -7.247737 -41.359835 -3.242517 -7.178028 -14.734530 -11.761997 32.070118 16.511419 -6.591231 -17.221178 0.476705 2.127473 -2.742505 -3.423235 3.918288 0.000000 0.000000 0.000000 -9.274861 -43.651124 -5.117112 5.603740 -0.841966 1.320358 14.213499 0.196373 0.183913 0.931119 2.488204 -0.102719 0.000000 0.000000 0.000000 13.102171 0.358049 -0.338787 6.073544 -26.708164 -2.098636 -11.307903 -41.725308 0.287681 0.000000 0.000000 0.000000 13.677563 0.465392 -0.339447 0.056225 -6.109286 -7.138790 -4.547984 -3.722109 -0.571418 -1.997602 9.714312 -60.663780 0.718146 -55.538956 -2.484560 0.000000 0.000000 0.000000 14.555802 0.941231 -0.245162 0.809191 5.540277 8.184783 4.281029 1.881725 1.895034 4.656231 -24.770535 70.391704 -7.388591 56.653540 6.993270 0.000000 0.000000 0.000000 
-0.863559 93.498497 -0.807686 0.000000 0.000000 0.000000 -7.873770 -49.187273 -4.267882 -33.196352 3.099769 12.136569 34.502830 -6.175557 2.877040 -1.090855 -0.223499 -8.998143 -1.942900 -2.164467 2.890711 0.000000 0.000000 0.000000 -7.468739 -45.400226 -3.501630 -9.756859 -14.474371 -12.007969 33.099961 17.268475 -7.369285 -16.532808 0.695272 2.316694 -2.199253 -2.551216 3.748908 0.000000 0.000000 0.000000 -9.642808 -47.760890 -5.585832 5.331559 -1.536339 1.301768 14.813009 -1.072943 0.557287 0.833964 2.481939 -0.218645 0.000000 0.000000 0.000000 13.610637 -0.843641 0.035005 6.210597 -26.614150 -2.489491 -11.068403 -43.018922 1.199584 0.000000 0.000000 0.000000 14.267921 -0.755232 -0.022852 -0.082046 -7.671930 -6.955786 -4.569823 -3.492511 -0.876050 -0.520256 10.829984 -60.572187 0.516433 -56.535808 -2.480557 0.000000 0.000000 0.000000 15.177234 -0.251530 0.127576 0.839453 4.215551 8.263794 4.654749 1.480101 2.055336 5.178128 -24.137448 70.181041 -6.779184 57.826000 6.710909 0.000000 0.000000 0.000000 
-0.819338 93.742043 -0.844486 0.000000 0.000000 0.000000 -8.141549 -53.065645 -4.527822 -31.280262 3.684887 13.133423 33.978654 -4.085206 2.517289 -1.627747 0.342957 -10.385326 -1.982937 -2.219879 2.834624 0.000000 0.000000 0.000000 -7.677475 -49.422757 -3.716747 -12.103392 -14.115335 -12.178363 34.030301 17.752949 -8.111528 -15.983835 0.775326 2.609115 -1.763003 -1.912772 3.601153 0.000000 0.000000 0.000000 -10.028886 -51.809352 -6.048811 5.061343 -2.158540 1.255226 15.357638 -2.226706 0.869277 0.767185 2.428452 -0.302394 0.000000 0.000000 0.000000 14.084493 -1.930958 0.344254 6.071813 -26.426299 -2.994807 -10.652388 -44.135771 2.092968 0.000000 0.000000 0.000000 14.813309 -1.863594 0.236899 -0.221703 -9.074572 -6.721505 -4.556150 -3.222890 -1.097722 0.653096 11.954711 -60.337311 0.135174 -57.638573 -2.583528 0.000000 0.000000 0.000000 15.758723 -1.335050 0.441315 0.910142 2.860855 8.531923 5.112383 1.122761 2.179699 5.739565 -23.851214 69.697320 -6.161882 59.078582 6.494091 0.000000 0.000000 0.000000 
-0.784705 93.987259 -0.855007 0.000000 0.000000 0.000000 -8.415169 -56.882307 -4.768142 -29.272200 4.459924 13.987728 33.428489 -1.958568 2.187082 -2.137777 0.840773 -11.782300 -2.028932 -2.293625 2.803233 0.000000 0.000000 0.000000 -7.854833 -53.374974 -3.895909 -14.168445 -13.662164 -12.266052 34.804448 17.970028 -8.786816 -15.619162 0.720665 2.913630 -1.285380 -1.472777 3.469901 0.000000 0.000000 0.000000 -10.426954 -55.759991 -6.514425 4.813795 -2.694291 1.188068 15.805947 -3.232132 1.098281 0.729537 2.372255 -0.393492 0.000000 0.000000 0.000000 14.490531 -2.868237 0.567488 5.707059 -26.175491 -3.545040 -10.120833 -45.142861 2.952033 0.000000 0.000000 0.000000 15.284025 -2.827656 0.422964 -0.359792 -10.301227 -6.451150 -4.482324 -2.924880 -1.232132 1.436406 12.959235 -59.941610 -0.381930 -58.691105 -2.770336 0.000000 0.000000 0.000000 16.254411 -2.277310 0.671348 1.032025 1.556098 8.976266 5.614375 0.822875 2.280225 6.285306 -23.889113 68.959646 -5.617768 60.324053 6.392033 0.000000 0.000000 0.000000 
-0.761288 94.219444 -0.835728 0.000000 0.000000 0.000000 -8.723450 -60.644389 -5.032218 -27.202663 5.386671 14.693137 32.841841 0.189544 1.886406 -2.646208 1.267449 -13.181290 -2.075668 -2.378474 2.785611 0.000000 0.000000 0.000000 -7.982625 -57.241029 -4.039865 -15.924716 -13.126365 -12.274730 35.412970 17.951231 -9.362476 -15.350142 0.553819 3.190005 -0.714888 -1.180735 3.329543 0.000000 0.000000 0.000000 -10.875143 -59.563901 -7.008690 4.608703 -3.148469 1.101153 16.127289 -4.079079 1.239046 0.740796 2.287429 -0.403207 0.000000 0.000000 0.000000 14.809266 -3.642390 0.700939 5.182276 -25.866611 -4.074406 -9.546026 -46.052093 3.734856 0.000000 0.000000 0.000000 15.658379 -3.632517 0.540663 -0.494048 -11.346531 -6.157384 -4.393583 -2.586376 -1.318598 1.887787 13.730411 -59.405331 -0.974790 -59.524518 -2.998519 0.000000 0.000000 0.000000 16.627834 -3.068476 0.810295 1.197334 0.365223 9.539042 6.121599 0.567434 2.395682 6.681492 -24.150367 68.052119 -5.220507 61.359728 6.432368 0.000000 0.000000 0.000000 
-0.747017 94.432678 -0.797184 0.000000 0.000000 0.000000 -9.117982 -64.363871 -5.373029 -25.109317 6.410754 15.262348 32.258915 2.348937 1.612139 -3.136162 1.630978 -14.558116 -2.132459 -2.467250 2.777422 0.000000 0.000000 0.000000 -8.088463 -61.025309 -4.176517 -17.409061 -12.545475 -12.230782 35.842907 17.767176 -9.822862 -14.992130 0.311028 3.494424 -0.175642 -0.996921 3.138030 0.000000 0.000000 0.000000 -11.391922 -63.212868 -7.573932 4.450315 -3.534002 0.997836 16.310770 -4.772663 1.306174 0.708131 2.176339 -0.411443 0.000000 0.000000 0.000000 15.032755 -4.261033 0.761282 4.564265 -25.514921 -4.531013 -8.984199 -46.873625 4.397899 0.000000 0.000000 0.000000 15.935287 -4.284882 0.607421 -0.620028 -12.239692 -5.838917 -4.356105 -2.224941 -1.390297 2.091553 14.207555 -58.787766 -1.552737 -60.063755 -3.195537 0.000000 0.000000 0.000000 16.865807 -3.717490 0.875656 1.399086 -0.671067 10.168644 6.620395 0.351853 2.486255 6.866207 -24.554528 67.106691 -4.987371 61.934134 6.594664 0.000000 0.000000 0.000000 
-0.746323 94.625961 -0.733799 0.000000 0.000000 0.000000 -9.667875 -68.006848 -5.867112 -23.048397 7.471475 15.711146 31.733820 4.492322 1.357026 -3.560155 1.935084 -15.898186 -2.188192 -2.550936 2.762003 0.000000 0.000000 0.000000 -8.215527 -64.714786 -4.341868 -18.645844 -11.945211 -12.140844 36.049120 17.513968 -10.170269 -14.428647 0.043128 3.924713 0.123671 -0.888101 2.871993 0.000000 0.000000 0.000000 -12.061752 -66.666990 -8.283763 4.343005 -3.869900 0.884313 16.369990 -5.328280 1.327427 0.654925 2.064537 -0.377084 0.000000 0.000000 0.000000 15.168329 -4.745700 0.775170 3.921682 -25.143619 -4.881944 -8.461318 -47.582414 4.917086 0.000000 0.000000 0.000000 16.118849 -4.802915 0.648897 -0.733786 -13.021319 -5.495200 -4.362765 -1.902304 -1.477270 2.122559 14.393833 -58.146350 -2.053417 -60.359563 -3.302534 0.000000 0.000000 0.000000 16.980931 -4.242406 0.894173 1.621218 -1.528316 10.785403 7.111081 0.173295 2.617008 6.856329 -25.003581 66.262329 -4.895739 61.905187 6.813866 0.000000 0.000000 0.000000 
-0.756022 94.795464 -0.652756 0.000000 0.000000 0.000000 -10.515554 -71.510605 -6.645331 -21.079424 8.500610 16.048986 31.296736 6.588723 1.121441 -3.899384 2.184195 -17.171584 -2.241297 -2.623805 2.727455 0.000000 0.000000 0.000000 -8.380924 -68.251348 -4.558112 -19.624568 -11.342484 -11.996473 36.000134 17.262753 -10.420494 -13.690949 -0.206372 4.483655 0.077004 -0.823107 2.532282 0.000000 0.000000 0.000000 -12.967521 -69.879153 -9.224935 4.290771 -4.175970 0.770633 16.342129 -5.765691 1.333602 0.586674 1.983650 -0.357315 0.000000 0.000000 0.000000 15.236274 -5.124785 0.773666 3.282329 -24.772668 -5.115615 -7.968508 -48.177163 5.307613 0.000000 0.000000 0.000000 16.233225 -5.209714 0.688891 -0.834301 -13.733160 -5.154556 -4.439626 -1.643017 -1.579546 1.977278 14.347065 -57.510063 -2.458611 -60.464414 -3.290969 0.000000 0.000000 0.000000 17.001917 -4.666258 0.893564 1.848584 -2.207352 11.335591 7.660452 0.059723 2.738619 6.733128 -25.462699 65.649661 -4.896159 61.367474 7.019560 0.000000 0.000000 0.000000 
-0.776633 94.947510 -0.556335 0.000000 0.000000 0.000000 -11.775425 -74.752022 -7.824632 -19.251757 9.428274 16.275139 30.950398 8.598513 0.902368 -4.157824 2.387809 -18.330711 -2.266667 -2.682065 2.655944 0.000000 0.000000 0.000000 -8.651276 -71.534115 -4.875974 -20.333953 -10.774586 -11.801453 35.712600 17.020442 -10.593635 -12.880518 -0.432276 5.047008 -0.183339 -0.765630 2.159988 0.000000 0.000000 0.000000 -14.195950 -72.803423 -10.483755 4.292005 -4.468032 0.664993 16.263865 -6.106672 1.345945 0.545220 1.918530 -0.345265 0.000000 0.000000 0.000000 15.252489 -5.426328 0.776346 2.653212 -24.427038 -5.250576 -7.500851 -48.631234 5.579090 0.000000 0.000000 0.000000 16.297017 -5.529974 0.736490 -0.919280 -14.408503 -4.843582 -4.504026 -1.516668 -1.651580 1.630696 14.145100 -56.911172 -2.769422 -60.457699 -3.159302 0.000000 0.000000 0.000000 16.983134 -5.012057 0.892725 2.070801 -2.728462 11.761691 8.238631 0.041966 2.828543 6.600079 -25.938263 65.316068 -4.941781 60.543207 7.156991 0.000000 0.000000 0.000000 
-0.810752 95.081322 -0.442493 0.000000 0.000000 0.000000 -13.623351 -77.621589 -9.574121 -17.600136 10.208099 16.389083 30.655620 10.473271 0.705163 -4.396166 2.549377 -19.321762 -2.260643 -2.726065 2.544002 0.000000 0.000000 0.000000 -9.069542 -74.466629 -5.322868 -20.816883 -10.267032 -11.575999 35.251194 16.797553 -10.701555 -12.117620 -0.632787 5.508366 -0.459145 -0.691400 1.789488 0.000000 0.000000 0.000000 -15.843129 -75.365994 -12.133011 4.346297 -4.755801 0.579106 16.175478 -6.363663 1.374309 0.559462 1.916594 -0.323774 0.000000 0.000000 0.000000 15.239298 -5.664503 0.791854 2.018045 -24.117483 -5.319620 -7.041042 -48.950675 5.769595 0.000000 0.000000 0.000000 16.334655 -5.780031 0.796534 -0.995306 -15.059672 -4.604157 -4.553391 -1.541327 -1.714891 1.077760 13.861550 -56.353545 -3.025383 -60.402191 -2.938999 0.000000 0.000000 0.000000 16.952340 -5.288247 0.901035 2.267921 -3.123234 12.047349 8.832413 0.149038 2.863544 6.526239 -26.436503 65.259384 -4.997726 59.707390 7.194865 0.000000 0.000000 0.000000 
